<svg width="32" height="32" viewBox="0 0 32 32" fill="none" xmlns="http://www.w3.org/2000/svg">
<g clip-path="url(#clip0_157_2)">
<path d="M16 0C19.7197 0 21.5795 0.00036015 23.1055 0.40918C27.2466 1.51879 30.4812 4.75343 31.5908 8.89453C31.9996 10.4205 32 12.2803 32 16C32 19.7197 31.9996 21.5795 31.5908 23.1055C30.4812 27.2466 27.2466 30.4812 23.1055 31.5908C21.5795 31.9996 19.7197 32 16 32C12.2803 32 10.4205 31.9996 8.89453 31.5908C4.75343 30.4812 1.51879 27.2466 0.40918 23.1055C0.00036015 21.5795 0 19.7197 0 16C0 12.2803 0.00036015 10.4205 0.40918 8.89453C1.51879 4.75343 4.75343 1.51879 8.89453 0.40918C10.4205 0.00036015 12.2803 0 16 0Z" fill="#FF6400"/>
</g>
<defs>
<clipPath id="clip0_157_2">
<rect width="32" height="32" fill="white"/>
</clipPath>
</defs>
</svg>
